<svg version="1.1" id="Layer_1" xmlns="http://www.w3.org/2000/svg" xmlns:xlink="http://www.w3.org/1999/xlink" x="0px" y="0px"
	 width="100%" viewBox="0 0 588 207" enable-background="new 0 0 588 207" xml:space="preserve">
<path fill="#f2f2f2" opacity="1.000000" stroke="none" 
	d="
M306.000000,0.999998 
	C400.307251,1.000000 494.614502,1.000000 588.960876,1.000000 
	C588.960876,69.954826 588.960876,138.909683 588.960876,207.932281 
	C393.099365,207.932281 197.198685,207.932281 1.149005,207.932281 
	C1.149005,139.118698 1.149005,70.236969 1.149005,1.000000 
	C98.021141,1.000000 195.042725,1.000000 292.386383,1.380299 
	C255.128967,6.330614 229.198425,37.168030 230.396255,72.952568 
	C231.718811,112.463028 265.091522,140.284103 300.393646,139.750076 
	C336.928436,139.197388 363.239716,110.406242 366.233246,85.542717 
	C356.758575,82.740608 353.747314,83.571587 351.327148,89.685066 
	C343.159882,110.316345 328.139191,122.328606 306.175568,125.638718 
	C274.881470,130.355011 244.220978,104.070206 244.004929,72.328796 
	C243.803574,42.750175 264.451294,18.892548 293.797913,15.252495 
	C300.942688,14.366280 308.251465,14.470086 315.600189,17.994963 
	C296.606812,40.067982 278.027374,61.659946 259.063904,83.698189 
	C270.050385,85.567863 279.075134,84.975471 284.748627,75.005501 
	C285.230804,74.158165 286.080231,73.524651 286.731323,72.767914 
	C302.690552,54.218586 318.614288,35.638542 334.632904,17.140650 
	C337.350128,14.002854 336.871735,11.908103 333.202545,10.389647 
	C327.717682,8.119781 322.253845,5.776690 316.667938,3.781484 
	C313.220581,2.550145 309.563141,1.907133 306.000000,0.999998 
M524.386108,192.988266 
	C527.360107,185.746048 530.334106,178.503830 533.308105,171.261612 
	C533.737732,171.367004 534.167297,171.472397 534.596924,171.577789 
	C534.596924,180.843658 534.596924,190.109528 534.596924,199.423126 
	C537.859802,199.423126 540.568542,199.423126 543.237122,199.423126 
	C543.237122,184.794113 543.237122,170.563538 543.237122,156.037903 
	C540.851379,156.037903 538.821289,156.302765 536.886536,155.985657 
	C532.077881,155.197495 529.785339,157.296173 528.267456,161.773453 
	C525.938782,168.642822 522.941406,175.285507 519.817932,183.042221 
	C516.297119,174.360397 513.321777,166.815384 510.134247,159.361145 
	C509.578613,158.061783 508.223114,156.336807 507.073730,156.202103 
	C503.543121,155.788376 499.933228,156.051468 496.481415,156.051468 
	C496.481415,171.112274 496.481415,185.336395 496.481415,199.494324 
	C499.515930,199.494324 502.106293,199.494324 505.380615,199.494324 
	C505.380615,189.924500 505.380615,180.668350 505.380615,171.412201 
	C509.584076,179.160583 512.662537,187.055405 516.034668,194.822708 
	C516.849243,196.698853 518.635132,198.153275 519.974365,199.801605 
	C521.177002,198.236969 522.400818,196.687851 523.567078,195.096542 
	C523.852417,194.707260 523.949219,194.179840 524.386108,192.988266 
M320.221008,196.365234 
	C322.035370,202.867920 327.081116,198.515656 330.777527,200.041870 
	C333.405731,189.911819 335.904236,180.281662 338.710236,169.466248 
	C339.494873,171.930481 339.947845,173.149948 340.271423,174.402832 
	C342.184631,181.810379 343.947723,189.260437 346.074127,196.605652 
	C346.447693,197.896103 348.322571,199.660080 349.467224,199.633224 
	C351.977783,199.574310 356.265167,199.080826 356.683655,197.765015 
	C361.008911,184.166565 364.708008,170.368958 368.673309,156.300537 
	C366.889618,156.192139 365.572815,156.220261 364.293671,156.014511 
	C360.099152,155.339828 358.045532,156.851822 357.363129,161.277145 
	C356.529633,166.682495 354.969421,171.984497 353.566010,177.289520 
	C352.884613,179.865280 351.844574,182.346161 350.966858,184.869995 
	C347.743256,176.557770 345.524628,168.410110 343.501434,160.214188 
	C342.839752,157.533691 342.140442,155.859283 338.715088,155.893555 
	C335.192596,155.928802 334.708618,157.911240 334.079498,160.453629 
	C332.881226,165.296188 331.526184,170.100021 330.230560,174.918396 
	C329.229218,178.642242 328.219299,182.363785 327.213196,186.086349 
	C326.809418,186.042068 326.405609,185.997787 326.001801,185.953506 
	C323.542755,176.029556 321.083710,166.105591 318.671265,156.369720 
	C315.138428,156.369720 312.233002,156.369720 308.748871,156.369720 
	C312.602417,169.744583 316.323059,182.658157 320.221008,196.365234 
M204.089081,170.668350 
	C199.642487,157.612961 185.345734,151.483963 172.402649,157.084396 
	C160.583115,162.198685 155.600006,176.970352 161.725922,188.734055 
	C167.053650,198.965042 179.437836,203.399567 190.972641,199.206726 
	C201.818054,195.264496 207.240479,183.997177 204.089081,170.668350 
M229.396027,155.914474 
	C223.654236,155.914474 217.912430,155.914474 211.990036,155.914474 
	C211.990036,163.744888 211.990036,170.888077 211.990051,178.031265 
	C211.990051,185.293564 211.990036,192.555878 211.990036,199.689209 
	C215.433395,199.689209 218.192337,199.689209 221.679825,199.689209 
	C221.679825,194.393417 221.679825,189.357208 221.679825,184.665070 
	C226.601791,183.282272 229.363647,184.805115 230.923920,188.830856 
	C231.519409,190.367264 232.441071,191.779495 233.238220,193.235107 
	C237.447083,200.920532 237.721741,201.042969 247.161438,199.296112 
	C244.089844,193.948975 241.084015,188.716309 238.954147,185.008560 
	C242.091690,180.417938 245.888840,177.078751 246.819077,173.073654 
	C249.324066,162.288620 242.812363,155.968643 229.396027,155.914474 
M461.846680,199.603607 
	C464.426422,199.603607 467.006195,199.603607 469.556152,199.603607 
	C469.556152,184.811600 469.556152,170.588394 469.556152,156.309631 
	C466.598785,156.309631 464.006165,156.309631 460.846161,156.309631 
	C460.846161,160.847855 461.006317,165.136566 460.750336,169.400299 
	C460.671570,170.712051 459.506714,173.025543 458.752228,173.061584 
	C452.513153,173.359634 446.253601,173.230240 439.428589,173.230240 
	C439.428589,167.102997 439.428589,161.708664 439.428589,156.284195 
	C436.218384,156.284195 433.613556,156.284195 430.875610,156.284195 
	C430.875610,170.872849 430.875610,185.206467 430.875610,199.530396 
	C433.933929,199.530396 436.524902,199.530396 439.619812,199.530396 
	C439.619812,194.458282 439.708527,189.665253 439.584259,184.877731 
	C439.517365,182.300797 440.505310,181.298950 443.079681,181.365417 
	C447.570099,181.481354 452.073181,181.548187 456.556854,181.336838 
	C459.756714,181.185989 461.039856,182.206329 460.915039,185.556625 
	C460.748444,190.027420 461.055908,194.515869 461.846680,199.603607 
M278.292358,173.485062 
	C273.668488,173.485062 269.044647,173.485062 264.248596,173.485062 
	C264.248596,170.197311 264.248596,167.279877 264.248596,163.865143 
	C271.539978,163.865143 278.606079,163.865143 285.689514,163.865143 
	C285.689514,160.960251 285.689514,158.562347 285.689514,156.124252 
	C275.264557,156.124252 265.162354,156.124252 254.893768,156.124252 
	C254.893768,170.790726 254.893768,185.219269 254.893768,199.745056 
	C265.306610,199.745056 275.409576,199.745056 285.760803,199.745056 
	C285.760803,197.108017 285.760803,194.712234 285.760803,191.836884 
	C278.455170,191.836884 271.385895,191.836884 264.246765,191.836884 
	C264.246765,188.262497 264.246765,185.170776 264.246765,181.738312 
	C271.239319,181.738312 278.004242,181.738312 285.005615,181.738312 
	C285.005615,178.840378 285.005615,176.291977 285.005615,173.485123 
	C282.854828,173.485123 281.039825,173.485123 278.292358,173.485062 
M3.986441,193.409454 
	C3.986441,195.507568 3.986441,197.605682 3.986441,199.649902 
	C14.680751,199.649902 24.734734,199.649902 34.726219,199.649902 
	C34.726219,196.906586 34.726219,194.509766 34.726219,191.625793 
	C27.488865,191.625793 20.596519,191.625793 13.774155,191.625793 
	C13.774155,188.072525 13.774155,185.043381 13.774155,181.560684 
	C20.948849,181.560684 27.698229,181.560684 34.495712,181.560684 
	C34.495712,178.689041 34.495712,176.293549 34.495712,173.416412 
	C27.450764,173.416412 20.701582,173.416412 13.729338,173.416412 
	C13.729338,170.066895 13.729338,167.214951 13.729338,163.842117 
	C20.999796,163.842117 27.895231,163.842117 34.730080,163.842117 
	C34.730080,160.905792 34.730080,158.514145 34.730080,156.216217 
	C24.327253,156.216217 14.277259,156.216217 3.986441,156.216217 
	C3.986441,168.505737 3.986441,180.466263 3.986441,193.409454 
M292.398773,82.112938 
	C298.654785,85.520660 307.121582,83.916916 311.728851,78.506523 
	C324.464752,63.550541 337.217041,48.608490 349.970062,33.667076 
	C353.641418,29.365705 353.314880,27.233200 348.547577,22.994410 
	C344.495300,19.391373 342.848572,23.517792 341.087524,25.543924 
	C324.929169,44.134357 308.928284,62.861691 292.398773,82.112938 
M552.847473,194.355392 
	C552.847473,195.974075 552.847473,197.592758 552.847473,199.524597 
	C563.272278,199.524597 573.156250,199.524597 583.176514,199.524597 
	C583.176514,196.958633 583.176514,194.614151 583.176514,191.858902 
	C575.979187,191.858902 569.213562,191.858902 562.182251,191.858902 
	C562.182251,188.380127 562.182251,185.321136 562.182251,181.675323 
	C569.189758,181.675323 575.924927,181.675323 582.798706,181.675323 
	C582.798706,178.698120 582.798706,176.311966 582.798706,173.318481 
	C575.763062,173.318481 569.039856,173.318481 562.351990,173.318481 
	C562.351990,169.830093 562.351990,166.969894 562.351990,163.694214 
	C569.568665,163.694214 576.332092,163.694214 583.334106,163.694214 
	C583.334106,161.030060 583.334106,158.793320 583.334106,156.312714 
	C573.171265,156.312714 563.287842,156.312714 552.847290,156.312714 
	C552.847290,168.860687 552.847290,181.125259 552.847473,194.355392 
M68.923653,158.039993 
	C66.171242,162.190155 63.418835,166.340332 60.406242,170.882828 
	C58.219765,167.685089 56.239326,164.837097 54.308826,161.955658 
	C49.682064,155.049835 48.711220,154.671982 39.821625,156.712631 
	C44.597187,163.632629 49.290855,170.433960 54.067234,177.355133 
	C48.867775,184.754822 43.771370,192.007828 38.620281,199.338654 
	C45.949787,201.328644 50.864323,199.669312 53.988590,193.165009 
	C55.566631,189.879761 58.103348,187.055008 60.369968,183.786438 
	C62.843578,187.360306 65.376289,190.157059 66.914101,193.422363 
	C70.040527,200.060898 75.114410,201.149185 82.136246,199.427872 
	C77.952850,193.440033 74.184990,187.402390 69.739113,181.913940 
	C66.857719,178.356888 67.112648,175.888397 69.811653,172.479492 
	C73.797874,167.444824 77.249214,161.986649 80.928322,156.708817 
	C80.732544,156.258835 80.536774,155.808868 80.341003,155.358887 
	C76.668129,156.022034 72.995247,156.685181 68.923653,158.039993 
M122.005836,173.450775 
	C122.936783,163.257248 118.896889,156.891449 110.110367,156.190536 
	C102.572525,155.589233 94.948685,156.065994 87.234428,156.065994 
	C87.234428,170.786591 87.234428,185.168060 87.234428,199.706024 
	C90.200386,199.706024 92.919319,199.706024 96.120865,199.706024 
	C96.120865,194.559799 96.120865,189.651306 96.120865,184.209351 
	C100.203331,184.209351 103.818825,184.248611 107.433182,184.200989 
	C114.475403,184.108185 119.503609,181.051849 122.005836,173.450775 
M342.461273,78.999786 
	C348.478149,71.913315 354.678192,64.972351 360.457550,57.697201 
	C365.666107,51.140610 365.352112,47.342781 359.533905,40.043579 
	C347.276550,54.222382 335.106171,68.300575 322.467041,82.920998 
	C329.858246,83.351768 336.593567,85.396973 342.461273,78.999786 
M402.276855,172.536057 
	C402.276855,181.464783 402.276855,190.393494 402.276855,199.548401 
	C405.459869,199.548401 408.024048,199.548401 411.264832,199.548401 
	C411.264832,187.592285 411.264832,175.899780 411.264832,163.723297 
	C415.860748,163.723297 419.784698,163.723297 423.823273,163.723297 
	C423.823273,160.972733 423.823273,158.733078 423.823273,156.472870 
	C412.193420,156.472870 400.859711,156.472870 389.738037,156.472870 
	C389.738037,159.151230 389.738037,161.367523 389.738037,164.103882 
	C394.102081,164.103882 398.006683,164.103882 402.277527,164.103882 
	C402.277527,166.938614 402.277527,169.244217 402.276855,172.536057 
M156.339951,198.082352 
	C156.339951,196.122330 156.339951,194.162323 156.339951,191.725464 
	C149.912430,191.725464 143.999924,191.725464 137.714981,191.725464 
	C137.714981,179.648376 137.714981,168.046158 137.714981,156.173615 
	C134.434570,156.173615 131.545700,156.173615 128.468002,156.173615 
	C128.468002,170.796463 128.468002,185.174500 128.468002,199.992538 
	C136.242981,199.992538 143.701981,200.055115 151.158401,199.944717 
	C152.839935,199.919815 154.512558,199.292236 156.339951,198.082352 
M382.893616,183.497498 
	C382.893616,174.414719 382.893616,165.331940 382.893616,156.361542 
	C379.486816,156.361542 376.892761,156.361542 374.188232,156.361542 
	C374.188232,170.911423 374.188232,185.128952 374.188232,199.392700 
	C377.258057,199.392700 379.955261,199.392700 382.893555,199.392700 
	C382.893555,194.138947 382.893555,189.317215 382.893616,183.497498 
z"/>
<path fill="#030403" opacity="1.000000" stroke="none" 
	d="
M305.600006,0.999998 
	C309.563141,1.907133 313.220581,2.550145 316.667938,3.781484 
	C322.253845,5.776690 327.717682,8.119781 333.202545,10.389647 
	C336.871735,11.908103 337.350128,14.002854 334.632904,17.140650 
	C318.614288,35.638542 302.690552,54.218586 286.731323,72.767914 
	C286.080231,73.524651 285.230804,74.158165 284.748627,75.005501 
	C279.075134,84.975471 270.050385,85.567863 259.063904,83.698189 
	C278.027374,61.659946 296.606812,40.067982 315.600189,17.994963 
	C308.251465,14.470086 300.942688,14.366280 293.797913,15.252495 
	C264.451294,18.892548 243.803574,42.750175 244.004929,72.328796 
	C244.220978,104.070206 274.881470,130.355011 306.175568,125.638718 
	C328.139191,122.328606 343.159882,110.316345 351.327148,89.685066 
	C353.747314,83.571587 356.758575,82.740608 366.233246,85.542717 
	C363.239716,110.406242 336.928436,139.197388 300.393646,139.750076 
	C265.091522,140.284103 231.718811,112.463028 230.396255,72.952568 
	C229.198425,37.168030 255.128967,6.330614 292.854248,1.380299 
	C294.066681,1.000000 295.133331,1.000000 296.783569,1.316072 
	C298.911438,1.421430 300.455719,1.210715 302.000000,1.000000 
	C303.066681,1.000000 304.133331,1.000000 305.600006,0.999998 
z"/>
<path fill="#5E5E59" opacity="1.000000" stroke="none" 
	d="
M301.583344,1.000000 
	C300.455719,1.210715 298.911438,1.421430 297.183594,1.316072 
	C298.388885,1.000000 299.777802,1.000000 301.583344,1.000000 
z"/>
<path fill="#137ED1" opacity="1.000000" stroke="none" 
	d="
M524.259399,193.352097 
	C523.949219,194.179840 523.852417,194.707260 523.567078,195.096542 
	C522.400818,196.687851 521.177002,198.236969 519.974365,199.801620 
	C518.635132,198.153275 516.849243,196.698853 516.034668,194.822708 
	C512.662537,187.055405 509.584076,179.160583 505.380615,171.412201 
	C505.380615,180.668350 505.380615,189.924500 505.380615,199.494324 
	C502.106293,199.494324 499.515930,199.494324 496.481415,199.494324 
	C496.481415,185.336395 496.481415,171.112274 496.481415,156.051468 
	C499.933228,156.051468 503.543121,155.788376 507.073730,156.202103 
	C508.223114,156.336807 509.578613,158.061783 510.134247,159.361145 
	C513.321777,166.815384 516.297119,174.360397 519.817932,183.042221 
	C522.941406,175.285507 525.938782,168.642822 528.267456,161.773453 
	C529.785339,157.296173 532.077881,155.197495 536.886536,155.985657 
	C538.821289,156.302765 540.851379,156.037903 543.237122,156.037903 
	C543.237122,170.563538 543.237122,184.794113 543.237122,199.423126 
	C540.568542,199.423126 537.859802,199.423126 534.596924,199.423126 
	C534.596924,190.109528 534.596924,180.843658 534.596924,171.577789 
	C534.167297,171.472397 533.737732,171.367004 533.308105,171.261612 
	C530.334106,178.503830 527.360107,185.746048 524.259399,193.352097 
z"/>
<path fill="#147FD2" opacity="1.000000" stroke="none" 
	d="
M320.132355,195.968491 
	C316.323059,182.658157 312.602417,169.744583 308.748871,156.369720 
	C312.233002,156.369720 315.138428,156.369720 318.671265,156.369720 
	C321.083710,166.105591 323.542755,176.029556 326.001801,185.953506 
	C326.405609,185.997787 326.809418,186.042068 327.213196,186.086349 
	C328.219299,182.363785 329.229218,178.642242 330.230560,174.918396 
	C331.526184,170.100021 332.881226,165.296188 334.079498,160.453629 
	C334.708618,157.911240 335.192596,155.928802 338.715088,155.893555 
	C342.140442,155.859283 342.839752,157.533691 343.501434,160.214188 
	C345.524628,168.410110 347.743256,176.557770 350.966858,184.869995 
	C351.844574,182.346161 352.884613,179.865280 353.566010,177.289520 
	C354.969421,171.984497 356.529633,166.682495 357.363129,161.277145 
	C358.045532,156.851822 360.099152,155.339828 364.293671,156.014511 
	C365.572815,156.220261 366.889618,156.192139 368.673309,156.300537 
	C364.708008,170.368958 361.008911,184.166565 356.683655,197.765015 
	C356.265167,199.080826 351.977783,199.574310 349.467224,199.633224 
	C348.322571,199.660080 346.447693,197.896103 346.074127,196.605652 
	C343.947723,189.260437 342.184631,181.810379 340.271423,174.402832 
	C339.947845,173.149948 339.494873,171.930481 338.710236,169.466248 
	C335.904236,180.281662 333.405731,189.911819 330.777527,200.041870 
	C327.081116,198.515656 322.035370,202.867920 320.132355,195.968491 
z"/>
<path fill="#080807" opacity="1.000000" stroke="none" 
	d="
M204.203491,171.072418 
	C207.240479,183.997177 201.818054,195.264496 190.972641,199.206726 
	C179.437836,203.399567 167.053650,198.965042 161.725922,188.734055 
	C155.600006,176.970352 160.583115,162.198685 172.402649,157.084396 
	C185.345734,151.483963 199.642487,157.612961 204.203491,171.072418 
M176.342102,164.535873 
	C175.256195,165.285126 174.042236,165.901627 173.105270,166.805298 
	C167.226318,172.475342 167.349747,183.736862 173.289795,189.194138 
	C178.928574,194.374634 187.967606,193.570648 192.647690,187.472321 
	C196.438950,182.532227 196.726685,174.469406 193.297775,169.255692 
	C189.794815,163.929382 184.816986,162.386765 176.342102,164.535873 
z"/>
<path fill="#060706" opacity="1.000000" stroke="none" 
	d="
M229.875824,155.914490 
	C242.812363,155.968643 249.324066,162.288620 246.819077,173.073654 
	C245.888840,177.078751 242.091690,180.417938 238.954147,185.008560 
	C241.084015,188.716309 244.089844,193.948975 247.161438,199.296112 
	C237.721741,201.042969 237.447083,200.920532 233.238220,193.235107 
	C232.441071,191.779495 231.519409,190.367264 230.923920,188.830856 
	C229.363647,184.805115 226.601791,183.282272 221.679825,184.665070 
	C221.679825,189.357208 221.679825,194.393417 221.679825,199.689209 
	C218.192337,199.689209 215.433395,199.689209 211.990036,199.689209 
	C211.990036,192.555878 211.990051,185.293564 211.990051,178.031265 
	C211.990036,170.888077 211.990036,163.744888 211.990036,155.914474 
	C217.912430,155.914474 223.654236,155.914474 229.875824,155.914490 
M237.229675,167.394394 
	C233.025589,161.408478 227.105560,164.815933 221.656448,163.894211 
	C221.656448,168.310303 221.656448,172.032425 221.656448,176.112640 
	C225.115158,176.112640 228.254379,176.315506 231.357285,176.066223 
	C236.309067,175.668411 237.973969,173.391876 237.229675,167.394394 
z"/>
<path fill="#147FD2" opacity="1.000000" stroke="none" 
	d="
M461.503235,199.300171 
	C461.055908,194.515869 460.748444,190.027420 460.915039,185.556625 
	C461.039856,182.206329 459.756714,181.185989 456.556854,181.336838 
	C452.073181,181.548187 447.570099,181.481354 443.079681,181.365417 
	C440.505310,181.298950 439.517365,182.300797 439.584259,184.877731 
	C439.708527,189.665253 439.619812,194.458282 439.619812,199.530396 
	C436.524902,199.530396 433.933929,199.530396 430.875610,199.530396 
	C430.875610,185.206467 430.875610,170.872849 430.875610,156.284195 
	C433.613556,156.284195 436.218384,156.284195 439.428589,156.284195 
	C439.428589,161.708664 439.428589,167.102997 439.428589,173.230240 
	C446.253601,173.230240 452.513153,173.359634 458.752228,173.061584 
	C459.506714,173.025543 460.671570,170.712051 460.750336,169.400299 
	C461.006317,165.136566 460.846161,160.847855 460.846161,156.309631 
	C464.006165,156.309631 466.598785,156.309631 469.556152,156.309631 
	C469.556152,170.588394 469.556152,184.811600 469.556152,199.603607 
	C467.006195,199.603607 464.426422,199.603607 461.503235,199.300171 
z"/>
<path fill="#080907" opacity="1.000000" stroke="none" 
	d="
M278.758606,173.485092 
	C281.039825,173.485123 282.854828,173.485123 285.005615,173.485123 
	C285.005615,176.291977 285.005615,178.840378 285.005615,181.738312 
	C278.004242,181.738312 271.239319,181.738312 264.246765,181.738312 
	C264.246765,185.170776 264.246765,188.262497 264.246765,191.836884 
	C271.385895,191.836884 278.455170,191.836884 285.760803,191.836884 
	C285.760803,194.712234 285.760803,197.108017 285.760803,199.745056 
	C275.409576,199.745056 265.306610,199.745056 254.893768,199.745056 
	C254.893768,185.219269 254.893768,170.790726 254.893768,156.124252 
	C265.162354,156.124252 275.264557,156.124252 285.689514,156.124252 
	C285.689514,158.562347 285.689514,160.960251 285.689514,163.865143 
	C278.606079,163.865143 271.539978,163.865143 264.248596,163.865143 
	C264.248596,167.279877 264.248596,170.197311 264.248596,173.485062 
	C269.044647,173.485062 273.668488,173.485062 278.758606,173.485092 
z"/>
<path fill="#080907" opacity="1.000000" stroke="none" 
	d="
M3.986441,192.918121 
	C3.986441,180.466263 3.986441,168.505737 3.986441,156.216217 
	C14.277259,156.216217 24.327253,156.216217 34.730080,156.216217 
	C34.730080,158.514145 34.730080,160.905792 34.730080,163.842117 
	C27.895231,163.842117 20.999796,163.842117 13.729338,163.842117 
	C13.729338,167.214951 13.729338,170.066895 13.729338,173.416412 
	C20.701582,173.416412 27.450764,173.416412 34.495712,173.416412 
	C34.495712,176.293549 34.495712,178.689041 34.495712,181.560684 
	C27.698229,181.560684 20.948849,181.560684 13.774155,181.560684 
	C13.774155,185.043381 13.774155,188.072525 13.774155,191.625793 
	C20.596519,191.625793 27.488865,191.625793 34.726219,191.625793 
	C34.726219,194.509766 34.726219,196.906586 34.726219,199.649902 
	C24.734734,199.649902 14.680751,199.649902 3.986441,199.649902 
	C3.986441,197.605682 3.986441,195.507568 3.986441,192.918121 
z"/>
<path fill="#0B7AD0" opacity="1.000000" stroke="none" 
	d="
M292.640137,81.831032 
	C308.928284,62.861691 324.929169,44.134357 341.087524,25.543924 
	C342.848572,23.517792 344.495300,19.391373 348.547577,22.994410 
	C353.314880,27.233200 353.641418,29.365705 349.970062,33.667076 
	C337.217041,48.608490 324.464752,63.550541 311.728851,78.506523 
	C307.121582,83.916916 298.654785,85.520660 292.640137,81.831032 
z"/>
<path fill="#157FD2" opacity="1.000000" stroke="none" 
	d="
M552.847412,193.872620 
	C552.847290,181.125259 552.847290,168.860687 552.847290,156.312714 
	C563.287842,156.312714 573.171265,156.312714 583.334106,156.312714 
	C583.334106,158.793320 583.334106,161.030060 583.334106,163.694214 
	C576.332092,163.694214 569.568665,163.694214 562.351990,163.694214 
	C562.351990,166.969894 562.351990,169.830093 562.351990,173.318481 
	C569.039856,173.318481 575.763062,173.318481 582.798706,173.318481 
	C582.798706,176.311966 582.798706,178.698120 582.798706,181.675323 
	C575.924927,181.675323 569.189758,181.675323 562.182251,181.675323 
	C562.182251,185.321136 562.182251,188.380127 562.182251,191.858902 
	C569.213562,191.858902 575.979187,191.858902 583.176514,191.858902 
	C583.176514,194.614151 583.176514,196.958633 583.176514,199.524597 
	C573.156250,199.524597 563.272278,199.524597 552.847473,199.524597 
	C552.847473,197.592758 552.847473,195.974075 552.847412,193.872620 
z"/>
<path fill="#090908" opacity="1.000000" stroke="none" 
	d="
M69.123016,157.694153 
	C72.995247,156.685181 76.668129,156.022034 80.341003,155.358887 
	C80.536774,155.808868 80.732544,156.258835 80.928322,156.708817 
	C77.249214,161.986649 73.797874,167.444824 69.811653,172.479492 
	C67.112648,175.888397 66.857719,178.356888 69.739113,181.913940 
	C74.184990,187.402390 77.952850,193.440033 82.136246,199.427872 
	C75.114410,201.149185 70.040527,200.060898 66.914101,193.422363 
	C65.376289,190.157059 62.843578,187.360306 60.369968,183.786438 
	C58.103348,187.055008 55.566631,189.879761 53.988590,193.165009 
	C50.864323,199.669312 45.949787,201.328644 38.620281,199.338654 
	C43.771370,192.007828 48.867775,184.754822 54.067234,177.355133 
	C49.290855,170.433960 44.597187,163.632629 39.821625,156.712631 
	C48.711220,154.671982 49.682064,155.049835 54.308826,161.955658 
	C56.239326,164.837097 58.219765,167.685089 60.406242,170.882828 
	C63.418835,166.340332 66.171242,162.190155 69.123016,157.694153 
z"/>
<path fill="#060705" opacity="1.000000" stroke="none" 
	d="
M121.955688,173.831909 
	C119.503609,181.051849 114.475403,184.108185 107.433182,184.200989 
	C103.818825,184.248611 100.203331,184.209351 96.120865,184.209351 
	C96.120865,189.651306 96.120865,194.559799 96.120865,199.706024 
	C92.919319,199.706024 90.200386,199.706024 87.234428,199.706024 
	C87.234428,185.168060 87.234428,170.786591 87.234428,156.065994 
	C94.948685,156.065994 102.572525,155.589233 110.110367,156.190536 
	C118.896889,156.891449 122.936783,163.257248 121.955688,173.831909 
M96.827332,175.902802 
	C100.618767,175.871185 104.567223,176.460907 108.138527,175.558304 
	C110.061104,175.072418 112.537750,172.048431 112.569420,170.133347 
	C112.601479,168.194260 110.218475,164.932663 108.376678,164.511917 
	C104.533012,163.633881 100.348907,164.246140 96.225494,164.246140 
	C96.225494,168.255051 96.225494,171.717148 96.827332,175.902802 
z"/>
<path fill="#0B7AD0" opacity="1.000000" stroke="none" 
	d="
M342.193420,79.245728 
	C336.593567,85.396973 329.858246,83.351768 322.467041,82.920998 
	C335.106171,68.300575 347.276550,54.222382 359.533905,40.043579 
	C365.352112,47.342781 365.666107,51.140610 360.457550,57.697201 
	C354.678192,64.972351 348.478149,71.913315 342.193420,79.245728 
z"/>
<path fill="#167FD2" opacity="1.000000" stroke="none" 
	d="
M402.277191,172.042938 
	C402.277527,169.244217 402.277527,166.938614 402.277527,164.103882 
	C398.006683,164.103882 394.102081,164.103882 389.738037,164.103882 
	C389.738037,161.367523 389.738037,159.151230 389.738037,156.472870 
	C400.859711,156.472870 412.193420,156.472870 423.823273,156.472870 
	C423.823273,158.733078 423.823273,160.972733 423.823273,163.723297 
	C419.784698,163.723297 415.860748,163.723297 411.264832,163.723297 
	C411.264832,175.899780 411.264832,187.592285 411.264832,199.548401 
	C408.024048,199.548401 405.459869,199.548401 402.276855,199.548401 
	C402.276855,190.393494 402.276855,181.464783 402.277191,172.042938 
z"/>
<path fill="#0E0F0E" opacity="1.000000" stroke="none" 
	d="
M156.264618,198.512222 
	C154.512558,199.292236 152.839935,199.919815 151.158401,199.944717 
	C143.701981,200.055115 136.242981,199.992538 128.468002,199.992538 
	C128.468002,185.174500 128.468002,170.796463 128.468002,156.173615 
	C131.545700,156.173615 134.434570,156.173615 137.714981,156.173615 
	C137.714981,168.046158 137.714981,179.648376 137.714981,191.725464 
	C143.999924,191.725464 149.912430,191.725464 156.339951,191.725464 
	C156.339951,194.162323 156.339951,196.122330 156.264618,198.512222 
z"/>
<path fill="#157FD2" opacity="1.000000" stroke="none" 
	d="
M382.893585,183.996490 
	C382.893555,189.317215 382.893555,194.138947 382.893555,199.392700 
	C379.955261,199.392700 377.258057,199.392700 374.188232,199.392700 
	C374.188232,185.128952 374.188232,170.911423 374.188232,156.361542 
	C376.892761,156.361542 379.486816,156.361542 382.893616,156.361542 
	C382.893616,165.331940 382.893616,174.414719 382.893585,183.996490 
z"/>
<path fill="#F8F8F9" opacity="1.000000" stroke="none" 
	d="
M176.699524,164.379272 
	C184.816986,162.386765 189.794815,163.929382 193.297775,169.255692 
	C196.726685,174.469406 196.438950,182.532227 192.647690,187.472321 
	C187.967606,193.570648 178.928574,194.374634 173.289795,189.194138 
	C167.349747,183.736862 167.226318,172.475342 173.105270,166.805298 
	C174.042236,165.901627 175.256195,165.285126 176.699524,164.379272 
z"/>
<path fill="#F2F2F2" opacity="1.000000" stroke="none" 
	d="
M237.427551,167.734375 
	C237.973969,173.391876 236.309067,175.668411 231.357285,176.066223 
	C228.254379,176.315506 225.115158,176.112640 221.656448,176.112640 
	C221.656448,172.032425 221.656448,168.310303 221.656448,163.894211 
	C227.105560,164.815933 233.025589,161.408478 237.427551,167.734375 
z"/>
<path fill="#F4F4F5" opacity="1.000000" stroke="none" 
	d="
M96.526413,175.541016 
	C96.225494,171.717148 96.225494,168.255051 96.225494,164.246140 
	C100.348907,164.246140 104.533012,163.633881 108.376678,164.511917 
	C110.218475,164.932663 112.601479,168.194260 112.569420,170.133347 
	C112.537750,172.048431 110.061104,175.072418 108.138527,175.558304 
	C104.567223,176.460907 100.618767,175.871185 96.526413,175.541016 
z"/>
</svg>