<?xml version="1.0" standalone="no"?>
<!DOCTYPE svg PUBLIC "-//W3C//DTD SVG 20010904//EN"
 "http://www.w3.org/TR/2001/REC-SVG-20010904/DTD/svg10.dtd">
<svg version="1.0" xmlns="http://www.w3.org/2000/svg"
 width="588.000000pt" height="207.000000pt" viewBox="0 0 588.000000 207.000000"
 preserveAspectRatio="xMidYMid meet">

<g transform="translate(0.000000,207.000000) scale(0.100000,-0.100000)"
fill="#000000" stroke="none">
<path d="M2895 2059 c-348 -52 -597 -337 -598 -684 0 -192 62 -343 196 -478
145 -146 290 -209 482 -210 168 0 267 30 406 123 65 45 158 142 194 205 37 63
87 197 77 207 -15 15 -101 21 -116 8 -9 -6 -33 -48 -55 -93 -92 -189 -253
-300 -458 -314 -168 -12 -311 42 -429 162 -177 179 -213 425 -96 649 92 176
290 296 488 296 61 0 154 -18 154 -30 0 -4 -124 -151 -275 -326 -151 -176
-275 -322 -275 -326 0 -5 37 -8 82 -8 l81 0 41 43 c44 46 508 584 544 631 12
15 19 32 17 37 -14 21 -118 70 -190 88 -100 25 -193 32 -270 20z"/>
<path d="M3205 1593 c-127 -146 -245 -284 -263 -305 l-34 -38 74 0 c54 1 78 5
93 18 42 35 435 504 435 519 0 23 -39 73 -58 73 -10 0 -114 -112 -247 -267z"/>
<path d="M3435 1504 c-77 -90 -157 -185 -179 -209 l-38 -45 68 0 c86 0 98 8
200 128 101 119 144 179 144 203 0 26 -32 89 -44 88 -6 0 -74 -74 -151 -165z"/>
<path d="M1755 521 c-145 -36 -215 -194 -146 -329 40 -77 106 -115 201 -115
77 1 105 11 155 55 136 119 80 347 -95 387 -51 12 -72 12 -115 2z m109 -85
c72 -30 103 -120 68 -199 -25 -57 -61 -81 -121 -81 -78 0 -131 58 -131 145 0
109 89 175 184 135z"/>
<path d="M30 300 l0 -220 155 0 155 0 0 40 0 39 -107 3 -108 3 -3 47 -3 47
108 3 108 3 3 38 3 37 -63 2 c-35 0 -83 1 -108 2 l-45 1 0 45 0 45 108 3 107
3 0 39 0 40 -155 0 -155 0 0 -220z"/>
<path d="M390 515 c0 -3 32 -51 70 -106 40 -57 67 -105 63 -112 -3 -7 -37 -55
-75 -108 -37 -53 -68 -99 -68 -103 0 -4 24 -6 52 -4 l53 3 48 70 c26 38 51 73
56 78 4 4 32 -29 61 -73 l55 -80 52 0 c29 0 53 2 53 5 0 2 -34 52 -75 110 -41
58 -75 108 -75 111 0 3 28 47 63 98 35 50 67 97 71 104 5 9 -6 12 -47 12 l-54
0 -50 -75 -50 -76 -49 75 -49 76 -52 0 c-29 0 -53 -2 -53 -5z"/>
<path d="M860 300 l0 -220 45 0 44 0 3 78 3 77 85 5 c47 3 95 11 108 18 60 34
81 136 42 200 -31 50 -71 62 -210 62 l-120 0 0 -220z m240 120 c11 -11 20 -29
20 -40 0 -40 -35 -60 -105 -60 l-65 0 0 60 0 60 65 0 c52 0 69 -4 85 -20z"/>
<path d="M1270 300 l0 -220 140 0 140 0 0 40 0 40 -90 0 -90 0 0 180 0 180
-50 0 -50 0 0 -220z"/>
<path d="M2110 300 l0 -220 45 0 44 0 3 78 3 77 35 0 c32 0 37 -4 78 -77 l43
-78 50 0 c27 0 49 2 49 5 0 3 -20 41 -45 83 -41 69 -44 78 -29 87 57 34 68 51
72 116 3 55 1 68 -19 93 -36 46 -75 56 -209 56 l-120 0 0 -220z m240 120 c26
-26 25 -55 0 -80 -17 -17 -31 -20 -83 -18 l-62 3 -3 44 c-5 66 -1 71 68 71 47
0 64 -4 80 -20z"/>
<path d="M2540 300 l0 -220 155 0 155 0 0 40 0 40 -110 0 -110 0 0 50 0 50
105 0 105 0 0 40 0 40 -62 2 c-35 1 -82 0 -105 -1 l-43 -3 0 51 0 51 110 0
110 0 0 40 0 40 -155 0 -155 0 0 -220z"/>
<path d="M3094 483 c4 -15 30 -109 59 -208 l53 -180 46 -3 46 -3 38 155 c21
86 41 152 45 148 3 -4 24 -74 44 -155 l38 -148 45 3 45 3 58 205 c32 113 58
206 59 208 0 1 -20 2 -44 2 l-45 0 -38 -160 c-21 -88 -40 -160 -43 -160 -3 0
-24 71 -46 158 l-41 157 -34 0 -34 0 -39 -150 c-22 -82 -41 -152 -43 -154 -8
-11 -18 18 -52 156 l-37 148 -43 3 c-42 3 -43 3 -37 -25z"/>
<path d="M3730 300 l0 -210 40 0 40 0 0 210 0 210 -40 0 -40 0 0 -210z"/>
<path d="M3890 480 c0 -29 1 -29 63 -32 l62 -3 3 -178 2 -177 40 0 40 0 0 180
0 180 65 0 65 0 0 30 0 30 -170 0 -170 0 0 -30z"/>
<path d="M4300 300 l0 -210 40 0 40 0 0 90 0 90 110 0 110 0 0 -90 0 -90 40 0
40 0 0 210 0 210 -40 0 -40 0 0 -85 0 -85 -110 0 -110 0 0 85 0 85 -40 0 -40
0 0 -210z"/>
<path d="M4960 300 l0 -210 40 0 40 0 0 152 c0 93 4 148 9 142 5 -5 35 -73 66
-151 43 -107 61 -143 74 -143 13 0 32 37 77 149 32 82 62 147 66 145 5 -3 8
-70 8 -150 l0 -144 40 0 40 0 0 210 0 211 -61 -3 -61 -3 -44 -110 c-24 -60
-49 -121 -55 -135 -10 -23 -15 -14 -66 113 l-55 137 -59 0 -59 0 0 -210z"/>
<path d="M5520 300 l0 -210 150 0 150 0 0 30 0 29 -107 3 -108 3 0 55 0 55
108 3 107 3 0 34 0 34 -107 3 -108 3 0 50 0 50 108 3 107 3 0 29 0 30 -150 0
-150 0 0 -210z"/>
</g>
</svg>
